<?xml version="1.0" encoding="UTF-8"?>
<svg version="1.1" xmlns="http://www.w3.org/2000/svg" width="1254" height="1254">
<path d="M0 0 C413.82 0 827.64 0 1254 0 C1254 413.82 1254 827.64 1254 1254 C840.18 1254 426.36 1254 0 1254 C0 840.18 0 426.36 0 0 Z " fill="#1B6BFA" transform="translate(0,0)"/>
<path d="M0 0 C413.82 0 827.64 0 1254 0 C1254 413.82 1254 827.64 1254 1254 C840.18 1254 426.36 1254 0 1254 C0 840.18 0 426.36 0 0 Z M324.1875 130.75 C322.96595215 131.00595947 322.96595215 131.00595947 321.71972656 131.26708984 C319.14095228 131.82276715 316.56993151 132.40481722 314 133 C313.13004395 133.20077148 312.26008789 133.40154297 311.36376953 133.60839844 C270.83666399 143.21997947 236.00556289 164.55542015 206 193 C205.49823242 193.47308594 204.99646484 193.94617188 204.47949219 194.43359375 C173.75560495 223.59658897 151.64915043 263.58007503 143 305 C142.82484863 305.82387207 142.64969727 306.64774414 142.46923828 307.49658203 C141.90114437 310.20309058 141.35274929 312.91280258 140.8125 315.625 C140.56161621 316.85875366 140.56161621 316.85875366 140.30566406 318.11743164 C137.54320629 332.60609546 137.85267816 347.33139243 137.85955811 362.01582336 C137.85697044 364.23748154 137.85395617 366.45913925 137.8505547 368.68079633 C137.84252863 374.75775226 137.8406976 380.83469636 137.83995724 386.91165698 C137.83829011 392.80180967 137.83196682 398.69195631 137.82587883 404.58210582 C137.80987112 420.34795482 137.80392151 436.11380279 137.79913008 451.87965845 C137.79678888 459.34768067 137.79318567 466.81570214 137.7894347 474.28372377 C137.77660384 499.88125038 137.76588426 525.47877658 137.7624321 551.07630634 C137.76221047 552.68108344 137.76198869 554.28586055 137.76176675 555.89063765 C137.76154611 557.49913465 137.76132563 559.10763165 137.7611053 560.71612865 C137.76066277 563.94266975 137.76021564 567.16921085 137.75976562 570.39575195 C137.75965623 571.19573762 137.75954684 571.99572329 137.75943414 572.81995095 C137.75580584 598.74263377 137.73989198 624.66528859 137.71657526 650.58796069 C137.69192977 678.03843418 137.67825708 705.48889167 137.67706418 732.93937653 C137.67689275 735.95789254 137.67667732 738.97640854 137.67642975 741.99492455 C137.67637398 742.73808922 137.67631821 743.4812539 137.67626075 744.24693872 C137.67511444 756.15984592 137.66412842 768.07272417 137.64954269 779.98562162 C137.63511268 791.97953709 137.63197719 803.9734158 137.63998267 815.96733759 C137.64402186 822.45343957 137.64304587 828.93946435 137.62892532 835.42555618 C137.6160807 841.38040596 137.61747542 847.33508763 137.62951604 853.28993752 C137.63145491 855.42723262 137.62848005 857.56454008 137.61967167 859.70181791 C137.42747603 909.55209644 151.46998706 958.34702333 181.77587891 998.37011719 C182.96240058 999.94993743 184.11276291 1001.55671495 185.26171875 1003.1640625 C197.2283345 1019.53852164 213.22437412 1035.61800445 230 1047 C231.33620225 1047.94103043 232.67212013 1048.88246474 234.0078125 1049.82421875 C256.20811189 1065.24960348 280.00199185 1076.65158341 306 1084 C307.22203125 1084.34675781 308.4440625 1084.69351563 309.703125 1085.05078125 C329.28056512 1090.26740367 348.65274781 1092.60296334 368.87669373 1092.50120544 C371.06986238 1092.50511079 373.26302848 1092.51076102 375.45618874 1092.51797634 C381.40802726 1092.53257186 387.35959691 1092.52264556 393.31142628 1092.50823963 C399.75940813 1092.49704207 406.20735492 1092.50910128 412.65533447 1092.51808167 C424.53162006 1092.53191782 436.4078192 1092.52627773 448.28410114 1092.51200638 C459.26015383 1092.49890341 470.23617611 1092.49376844 481.2122364 1092.49632454 C481.94310867 1092.49648495 482.67398095 1092.49664537 483.42700086 1092.49681065 C486.39459733 1092.49747434 489.36219378 1092.49817678 492.32979023 1092.49893599 C520.1131458 1092.50594473 547.89644792 1092.49052058 575.67978989 1092.46431253 C600.30810913 1092.44120354 624.93636963 1092.43581005 649.56469727 1092.44604492 C655.87273118 1092.44864741 662.1807651 1092.45123256 668.4887991 1092.45364285 C669.26564268 1092.45394029 670.04248627 1092.45423774 670.84287058 1092.4545442 C691.48437483 1092.46217703 712.12587436 1092.45573081 732.76737648 1092.44494683 C734.99123495 1092.44379914 737.21509343 1092.44265596 739.4389519 1092.44152 C740.91390138 1092.44076476 742.38885085 1092.43999911 743.86380032 1092.43922299 C754.82629856 1092.43358911 765.78878155 1092.43487801 776.75127983 1092.43945122 C789.2298585 1092.44458322 801.70837652 1092.43830416 814.18694144 1092.41855692 C820.54349576 1092.40874275 826.89995831 1092.40351569 833.25651741 1092.41144943 C839.09255441 1092.418584 844.9284075 1092.41152288 850.76442052 1092.3938458 C852.85834324 1092.38985107 854.95228316 1092.39071562 857.04619914 1092.39736467 C909.95198823 1092.55078271 962.27707659 1077.28256158 1004 1044 C1004.90878906 1043.28328125 1005.81757812 1042.5665625 1006.75390625 1041.828125 C1015.823126 1034.55210802 1024.84273137 1026.93159963 1032.31640625 1017.98828125 C1033.49383005 1016.5977738 1034.71429781 1015.24309993 1035.96484375 1013.91796875 C1057.25483769 991.31900593 1072.64253756 962.46197391 1082 933 C1082.3400708 931.93652344 1082.3400708 931.93652344 1082.68701172 930.8515625 C1090.27676229 906.84173057 1092.30947322 883.25347697 1092.26069641 858.1867218 C1092.26372415 855.95163493 1092.26761672 853.71654909 1092.27228898 851.48146504 C1092.28249758 845.39524624 1092.28040552 839.30908682 1092.27610838 833.22286332 C1092.2738835 827.31531986 1092.28107065 821.40778938 1092.28786864 815.50025104 C1092.30304478 801.94110741 1092.30482031 788.38198256 1092.30234561 774.8228322 C1092.30050726 764.34630935 1092.30228388 753.86979259 1092.30657005 743.39327049 C1092.30717248 741.88385845 1092.30777367 740.37444641 1092.30837366 738.86503437 C1092.30928099 736.59001186 1092.31018966 734.31498934 1092.31110601 732.03996684 C1092.31952596 710.90951177 1092.32387787 689.77905899 1092.31969929 668.64860249 C1092.31954291 667.85334301 1092.31938654 667.05808352 1092.31922542 666.23872527 C1092.31841973 662.20877115 1092.31757396 658.17881704 1092.31671212 654.14886294 C1092.31654103 653.34861637 1092.31636994 652.5483698 1092.31619367 651.72387333 C1092.31584701 650.10558351 1092.31549848 648.48729369 1092.31514808 646.86900388 C1092.30979285 621.6975675 1092.31771961 596.52616617 1092.33618164 571.35473633 C1092.35693885 543.02137545 1092.36761727 514.68803627 1092.36360615 486.35466737 C1092.36321086 483.32838102 1092.3628493 480.30209468 1092.36250877 477.27580833 C1092.36241804 476.53075636 1092.36232731 475.78570438 1092.36223383 475.01807507 C1092.36107223 463.81475298 1092.36768268 452.61145295 1092.37832069 441.40813637 C1092.39042033 428.65315629 1092.39187714 415.89822451 1092.37953053 403.14324365 C1092.37352027 396.64495101 1092.37247555 390.14673331 1092.38453293 383.64844513 C1092.39547282 377.68272834 1092.39219317 371.71718343 1092.37827124 365.7514744 C1092.37564644 363.61032268 1092.37791976 361.46915712 1092.38600711 359.32801906 C1092.4609427 337.9819358 1090.90398068 316.34048093 1084.6875 295.8125 C1084.46876221 295.08474365 1084.25002441 294.3569873 1084.0246582 293.60717773 C1083.35683034 291.40255559 1082.67941827 289.20107397 1082 287 C1081.6184375 285.74703125 1081.236875 284.4940625 1080.84375 283.203125 C1071.22822763 252.92722348 1054.51686433 225.74203901 1033.14453125 202.3671875 C1031.25461926 200.28105514 1029.43688253 198.15350239 1027.625 196 C1007.84799466 173.48118255 976.61039598 151.99697987 948 143 C946.87078125 142.566875 945.7415625 142.13375 944.578125 141.6875 C925.47065914 134.4788147 906.37388829 129.60098446 886 128 C884.5851278 127.87289698 884.5851278 127.87289698 883.14167231 127.74322623 C872.33874711 126.8469953 861.5741184 126.85726076 850.74104309 126.86628723 C848.60172968 126.86441639 846.46241662 126.8621146 844.32310408 126.85942191 C838.47399593 126.85333132 832.62490212 126.85343426 826.77579153 126.85461628 C820.45591284 126.85482098 814.13603867 126.84929496 807.81616211 126.84455872 C795.44575532 126.83626684 783.07535427 126.83349155 770.70494507 126.83294634 C760.64632569 126.83248592 750.58770785 126.83042302 740.52908897 126.82724571 C737.62852389 126.8263481 734.7279588 126.82545829 731.82739371 126.82457083 C731.10620534 126.82434979 730.38501697 126.82412874 729.64197441 126.82390099 C709.37031663 126.81775118 689.09865938 126.81379999 668.82700062 126.81424427 C668.06349952 126.81425985 667.29999842 126.81427543 666.51336092 126.81429148 C662.6440547 126.81437458 658.77474849 126.81447362 654.90544228 126.81457619 C654.1370521 126.81459613 653.36866192 126.81461608 652.57698719 126.81463663 C651.02311682 126.81467706 649.46924645 126.81471886 647.91537609 126.81476202 C623.74525447 126.81537463 599.5751469 126.80786898 575.4050293 126.79418945 C548.21881815 126.77880907 521.03261621 126.77022439 493.84640044 126.77115268 C490.94426358 126.7712273 488.04212672 126.77127601 485.13998985 126.77130699 C484.06820527 126.77132447 484.06820527 126.77132447 482.97476847 126.77134231 C471.50700382 126.771373 460.03925141 126.76500405 448.57149039 126.75637473 C437.03472637 126.74787336 425.4979864 126.74709839 413.96121977 126.75348405 C407.71890617 126.75674194 401.47663668 126.75683235 395.23432732 126.7481308 C389.50927308 126.74023265 383.7842977 126.7417309 378.05924531 126.75041493 C375.99877374 126.75194263 373.93829618 126.75016161 371.87783168 126.74455485 C355.86042342 126.70388978 339.90707939 127.39986721 324.1875 130.75 Z " fill="#FDFDFD" transform="translate(0,0)"/>
<path d="M0 0 C0.75506836 0.35271973 1.51013672 0.70543945 2.28808594 1.06884766 C4.00775907 1.87403788 5.72386689 2.6868711 7.43701172 3.50585938 C10.55346356 4.98973286 13.68329755 6.44226249 16.81640625 7.890625 C32.01715168 14.92922876 47.15054949 22.10945424 62.28094482 29.29772949 C71.71480967 33.77830352 81.1619125 38.21669939 90.6875 42.5 C97.20834986 45.43234524 103.6435796 48.47812072 110.02050781 51.7109375 C132.52909645 63.10541984 155.50742766 73.62296811 178.43359375 84.1484375 C188.36898953 88.71013184 198.28688192 93.26781114 208.03466797 98.22021484 C211.92357028 100.19426112 215.84377317 102.06707815 219.8125 103.875 C224.36115567 105.95060016 228.85026005 108.12086076 233.3125 110.375 C240.60544186 114.05442237 247.94790159 117.6297153 255.30249023 121.18383789 C256.58627258 121.80424418 257.86980727 122.42516324 259.15307617 123.04663086 C265.4961375 126.11745828 271.84755156 129.14730001 278.30297852 131.97607422 C281.68819424 133.49039378 285.00079161 135.14477441 288.3125 136.8125 C289.00166504 137.15877441 289.69083008 137.50504883 290.40087891 137.86181641 C304.33873908 144.90123908 304.33873908 144.90123908 307.3125 147.875 C307.18102517 151.42482053 307.00404624 153.95719588 304.83203125 156.83984375 C301.25906675 159.72591275 297.33829956 161.28898735 293.125 163.0625 C283.50490876 167.13404146 274.62317369 171.94581981 265.3125 176.875 C264.9825 202.945 264.6525 229.015 264.3125 255.875 C265.6325 256.535 266.9525 257.195 268.3125 257.875 C269.91015625 259.390625 269.91015625 259.390625 271.375 261.125 C271.86097656 261.68703125 272.34695313 262.2490625 272.84765625 262.828125 C277.48416953 269.30687956 277.90835245 274.98477099 278.26171875 282.73828125 C278.32406204 283.88483688 278.38640533 285.03139252 278.45063782 286.21269226 C278.64619756 289.87043217 278.82304853 293.52881773 279 297.1875 C279.1296937 299.63743178 279.26054086 302.08730278 279.39257812 304.53710938 C280.49883295 325.57703782 280.49883295 325.57703782 280.3125 332.875 C278.7428011 334.4446989 277.18809822 334.00999102 275.00805664 334.02026367 C273.63642113 334.02983345 273.63642113 334.02983345 272.23707581 334.03959656 C270.74493813 334.04126579 270.74493813 334.04126579 269.22265625 334.04296875 C268.20779648 334.04629715 267.19293671 334.04962555 266.14732361 334.05305481 C263.9960882 334.0581285 261.8448449 334.060463 259.69360352 334.06030273 C256.39260964 334.06248834 253.09195025 334.08063707 249.79101562 334.09960938 C247.70573032 334.10254331 245.62044341 334.1045281 243.53515625 334.10546875 C242.54242203 334.11265427 241.54968781 334.11983978 240.52687073 334.12724304 C239.60929489 334.12416641 238.69171906 334.12108978 237.74633789 334.11791992 C236.93661026 334.11934494 236.12688263 334.12076996 235.2926178 334.12223816 C233.3125 333.875 233.3125 333.875 231.3125 331.875 C231.23730469 329.37011719 231.23730469 329.37011719 231.484375 326.171875 C231.57058105 324.97780029 231.65678711 323.78372559 231.74560547 322.5534668 C231.85018066 321.25707275 231.95475586 319.96067871 232.0625 318.625 C232.217701 316.59496471 232.37008948 314.56473047 232.52230835 312.5344696 C232.62810724 311.12739765 232.73524576 309.72042584 232.84365845 308.31355286 C233.21839375 303.38736395 233.50845403 298.46131969 233.7578125 293.52734375 C233.83056359 292.17803333 233.90379911 290.82874893 233.97753906 289.47949219 C234.11447733 286.92479736 234.23939999 284.36942167 234.35058594 281.81347656 C234.75156093 274.83574431 235.38613469 268.79334295 239.3125 262.875 C240.66339918 261.77542378 242.02753555 260.6919856 243.40185547 259.62182617 C247.78960298 255.29543944 248.21963199 251.48733218 248.36157036 245.45582867 C248.37163606 243.23008806 248.34273924 241.00677762 248.3125 238.78125 C248.32002783 237.22324605 248.33107 235.66525549 248.34545898 234.1072998 C248.37376787 230.02976713 248.35468756 225.95381403 248.32537842 221.87634277 C248.30390967 217.70652204 248.32774995 213.53697965 248.34765625 209.3671875 C248.38001608 201.20272535 248.36226176 193.0393729 248.3125 184.875 C246.38954589 185.66999279 244.46722214 186.46651045 242.54516602 187.26367188 C241.47460464 187.70706909 240.40404327 188.15046631 239.30104065 188.6072998 C235.86129174 190.06639669 232.5722441 191.66530713 229.25 193.375 C210.31677689 202.98989513 191.06661094 211.95625962 171.796875 220.87109375 C160.18743078 226.24326059 148.61787357 231.67918089 137.1965332 237.44140625 C119.9549704 246.10697364 102.50237413 254.37187135 85.08447266 262.67553711 C79.70953791 265.24078277 74.3445948 267.8257957 68.98828125 270.4296875 C55.21083691 277.12525675 41.41587449 283.75926241 27.48999023 290.14282227 C21.73106776 292.78966012 16.01966363 295.49912105 10.359375 298.3515625 C9.23708496 298.91141846 8.11479492 299.47127441 6.95849609 300.0480957 C4.84880956 301.10545838 2.74683868 302.17842798 0.65478516 303.27026367 C-5.57212173 306.37527528 -10.71038909 308.01125481 -17.6875 306.875 C-21.0234375 305.66015625 -21.0234375 305.66015625 -24.0625 303.9375 C-25.25802335 303.28724701 -26.45610589 302.64168462 -27.65625 302 C-28.29691406 301.65453125 -28.93757813 301.3090625 -29.59765625 300.953125 C-33.50413193 298.93782166 -37.54116708 297.2088695 -41.5625 295.4375 C-48.07510366 292.53970958 -54.49488073 289.53791837 -60.85083008 286.31005859 C-68.10607128 282.6361392 -75.42802757 279.10084589 -82.75 275.5625 C-83.42652618 275.23548096 -84.10305237 274.90846191 -84.80007935 274.5715332 C-94.25118756 270.00447926 -103.71279074 265.45972398 -113.18579102 260.93823242 C-120.52758598 257.4334726 -127.85874202 253.90693156 -135.1875 250.375 C-160.64201204 238.11258102 -186.15806237 225.98048797 -211.6875 213.875 C-212.50994202 213.48493774 -213.33238403 213.09487549 -214.17974854 212.69299316 C-219.68098629 210.08414745 -225.18340273 207.47780762 -230.6875 204.875 C-231.80788162 204.34518021 -231.80788162 204.34518021 -232.95089722 203.80465698 C-242.25102982 199.40961745 -251.57468856 195.07284684 -260.9375 190.8125 C-272.00484018 185.77358208 -282.937785 180.550606 -293.5625 174.625 C-297.65597809 172.35220321 -301.77371259 170.60217837 -306.14453125 168.94140625 C-309.97261144 167.3360823 -313.52796053 165.28985699 -317.140625 163.25390625 C-319.28079632 162.09519386 -321.36343114 161.13433141 -323.625 160.25 C-326.86934273 158.79335633 -328.65722539 157.79859543 -330.6875 154.875 C-331.3125 151.4375 -331.3125 151.4375 -330.6875 147.875 C-326.38334979 143.66686866 -321.76339557 141.19262541 -316.3359375 138.6875 C-315.12997925 138.11802643 -315.12997925 138.11802643 -313.8996582 137.53704834 C-311.29116558 136.30787602 -308.67698816 135.09136009 -306.0625 133.875 C-304.2543694 133.02581132 -302.44659182 132.17587061 -300.63916016 131.32519531 C-295.3278509 128.82904937 -290.00913379 126.34904701 -284.6875 123.875 C-283.94016602 123.52751709 -283.19283203 123.18003418 -282.42285156 122.82202148 C-276.82071653 120.21845689 -271.21641399 117.61960594 -265.60791016 115.02978516 C-259.12424846 112.03052045 -252.72276992 108.92598796 -246.359375 105.6796875 C-240.1549448 102.5774724 -233.79548998 99.78884188 -227.48242188 96.91699219 C-222.25174839 94.53064053 -217.05879892 92.11264234 -211.9375 89.5 C-204.65253252 85.79144944 -197.22781587 82.39735946 -189.80578613 78.97320557 C-180.55287039 74.70109112 -171.35439811 70.32848855 -162.1875 65.875 C-152.68800834 61.26113902 -143.15147487 56.73838636 -133.5625 52.3125 C-120.91695406 46.47473133 -108.36374699 40.45763593 -95.82617188 34.39208984 C-84.36623979 28.85288496 -72.87837321 23.3727752 -61.36328125 17.94921875 C-60.27066483 17.43457314 -60.27066483 17.43457314 -59.15597534 16.90953064 C-55.43865413 15.15961753 -51.71970005 13.41328947 -47.99804688 11.67260742 C-41.83757978 8.78879081 -35.68639362 5.90087105 -29.60546875 2.8515625 C-28.74276367 2.42375488 -27.88005859 1.99594727 -26.99121094 1.55517578 C-25.48819272 0.80552761 -23.99178744 0.04235195 -22.50488281 -0.73876953 C-14.58775768 -4.66214488 -7.85227096 -3.85423517 0 0 Z " fill="#020305" transform="translate(618.6875,378.125)"/>
<path d="M0 0 C5.59466422 0.39381535 9.80508754 2.03463445 14.77734375 4.53515625 C15.50635391 4.89210068 16.23536407 5.2490451 16.98646545 5.61680603 C19.30808461 6.75628092 21.62276084 7.90912427 23.9375 9.0625 C25.45594496 9.81012944 26.97482235 10.55688128 28.49414062 11.30273438 C37.66424371 15.81389583 46.79853794 20.39715497 55.93852425 24.96891594 C59.10468299 26.552527 62.27109591 28.13562959 65.4375 29.71875 C66.67838682 30.33918989 67.91927222 30.95963264 69.16015625 31.58007812 C69.7855127 31.89275635 70.41086914 32.20543457 71.05517578 32.52758789 C110.83984375 52.41992187 110.83984375 52.41992187 112.71253204 53.35629272 C113.93765712 53.96883758 115.16281034 54.58132614 116.38799286 55.1937561 C119.68093331 56.83989045 122.97323313 58.48729217 126.26477051 60.13623047 C126.97736023 60.4930188 127.68994995 60.84980713 128.4241333 61.21740723 C129.784913 61.89876189 131.14552147 62.58045867 132.50592041 63.26257324 C138.46938829 66.2476779 144.47875111 69.13341174 150.5 72 C157.67184627 75.42822583 164.83185793 78.87382469 171.9375 82.4375 C172.57163818 82.75396484 173.20577637 83.07042969 173.85913086 83.39648438 C176.5772955 84.75830053 179.27281059 86.14798346 181.9453125 87.59765625 C182.80898438 88.06042969 183.67265625 88.52320313 184.5625 89 C185.61630859 89.5878125 185.61630859 89.5878125 186.69140625 90.1875 C191.40682768 91.84707303 195.03806474 91.39017007 199.62109375 89.53125 C200.90071571 88.86842424 202.17285733 88.19097704 203.4375 87.5 C204.68574429 86.84288758 205.93447175 86.18669242 207.18359375 85.53125 C207.86885132 85.1674675 208.55410889 84.803685 209.26013184 84.42887878 C212.5679636 82.7037992 215.90331765 81.03617461 219.2421875 79.37231445 C220.68097842 78.65413224 222.11973359 77.93587842 223.55845642 77.21755981 C224.66362515 76.66596632 224.66362515 76.66596632 225.79112053 76.10322952 C229.27720594 74.36209679 232.76082573 72.61605348 236.24438477 70.86987305 C243.18462643 67.39166453 250.12581967 63.91536087 257.06762791 60.44027996 C261.22148492 58.36075176 265.37496372 56.28047545 269.52758789 54.19848633 C301.61042215 38.11439152 301.61042215 38.11439152 316.97084045 30.83720398 C328.06853406 25.5691382 339.02722592 20.02220119 350 14.5 C354.20715309 12.38305731 358.41567674 10.26887357 362.625 8.15625 C364.03749023 7.44378113 364.03749023 7.44378113 365.47851562 6.71691895 C380.02800482 -0.58494061 380.02800482 -0.58494061 385 0 C386.698604 1.698604 386.14073352 3.86594935 386.15390015 6.19154358 C386.16250061 7.31726776 386.17110107 8.44299194 386.17996216 9.60282898 C386.18635208 11.47210808 386.18635208 11.47210808 386.19287109 13.37915039 C386.20104858 14.6831781 386.20922607 15.98720581 386.21765137 17.33074951 C386.24391769 21.66969728 386.25919001 26.00865488 386.2734375 30.34765625 C386.27879651 31.84108423 386.28417402 33.33451214 386.28956985 34.82793999 C386.31121111 41.04297708 386.32994526 47.25801155 386.34119225 53.47307682 C386.35741138 62.37760806 386.39052473 71.28170147 386.44759309 80.18606764 C386.48634724 86.44688291 386.50583176 92.70758139 386.51111281 98.96851343 C386.51476071 102.7069662 386.52671979 106.44495251 386.55921555 110.18327522 C386.59500523 114.36080856 386.59091149 118.53740773 386.58349609 122.71508789 C386.59990143 123.94710434 386.61630676 125.17912079 386.63320923 126.44847107 C386.5818889 133.51532979 385.87110866 138.64297252 381 144 C378.72131408 145.7423576 376.79416296 147.04591545 374.3125 148.375 C373.32975098 148.93151245 373.32975098 148.93151245 372.32714844 149.49926758 C370.93145571 150.28602937 369.5307563 151.06396759 368.12548828 151.83349609 C366.05887582 152.96768796 364.01058909 154.12944705 361.96484375 155.30078125 C348.53226341 162.942856 334.78913845 170.02727669 321 177 C320.40102905 177.30290955 319.80205811 177.60581909 319.18493652 177.91790771 C303.05722949 186.05444277 286.71459048 193.55969593 270.0625 200.5625 C269.27442963 200.89425232 268.48635925 201.22600464 267.67440796 201.56781006 C253.41397607 207.55222341 239.03710361 213.10207976 224.33203125 217.90625 C222.36417407 218.55220546 220.40086756 219.21286176 218.44921875 219.90625 C196.09645131 227.84684234 176.13784574 222.6096605 155 214 C153.47270264 213.3800415 153.47270264 213.3800415 151.91455078 212.74755859 C129.02227562 203.4038397 106.49690538 193.25193272 84 183 C83.31327209 182.68746277 82.62654419 182.37492554 81.91900635 182.05291748 C77.77606201 180.16738202 73.63661579 178.27439322 69.5 176.375 C68.07240356 175.72132446 68.07240356 175.72132446 66.6159668 175.05444336 C59.76093743 171.88682213 53.01051921 168.5282823 46.26464844 165.13671875 C42.66070675 163.32653871 39.04533822 161.54065601 35.42510986 159.76330566 C32.47962938 158.31658815 29.53782165 156.86248601 26.59619141 155.40795898 C25.09886297 154.66949859 23.60013013 153.93387985 22.10009766 153.20092773 C19.8832024 152.11682062 17.67170028 151.02232902 15.4609375 149.92578125 C14.79838959 149.60482986 14.13584167 149.28387848 13.45321655 148.95320129 C6.8706802 145.66351497 1.66025919 142.17301554 -1 135 C-1.43361131 130.67742503 -1.38897048 126.37492551 -1.35644531 122.03393555 C-1.35848969 120.72768723 -1.36053406 119.4214389 -1.36264038 118.0756073 C-1.36775841 114.5056492 -1.35427398 110.93598111 -1.33711338 107.36606956 C-1.32204861 103.62961787 -1.32325083 99.89316948 -1.32244873 96.1566925 C-1.31876122 89.88818423 -1.30381521 83.61978579 -1.28125 77.35131836 C-1.25231242 69.29604823 -1.24202015 61.2408662 -1.2375679 53.18554974 C-1.23359446 46.26477928 -1.22109684 39.3440281 -1.20722103 32.42327142 C-1.20311731 30.19504544 -1.20019425 27.96682015 -1.19742584 25.73859215 C-1.19164087 21.59872359 -1.17697415 17.45893406 -1.16113281 13.3190918 C-1.16001495 12.07911438 -1.15889709 10.83913696 -1.15774536 9.56158447 C-1.15203522 8.44138412 -1.14632507 7.32118378 -1.14044189 6.16703796 C-1.13746723 5.18759059 -1.13449257 4.20814322 -1.13142776 3.19901562 C-1 1 -1 1 0 0 Z " fill="#020305" transform="translate(413,632)"/>
<path d="M0 0 C0.33 0 0.66 0 1 0 C2.68490746 4.40174785 3.23846127 8.00772175 3.1953125 12.7109375 C3.18886719 13.95488281 3.18242188 15.19882812 3.17578125 16.48046875 C3.15902344 17.76566406 3.14226563 19.05085937 3.125 20.375 C3.11597656 21.68339844 3.10695313 22.99179687 3.09765625 24.33984375 C3.07415085 27.5600837 3.04129087 30.77994707 3 34 C2.67 34 2.34 34 2 34 C1.66058296 30.02132817 1.32958345 26.04199752 1 22.0625 C0.90460937 20.94552734 0.80921875 19.82855469 0.7109375 18.67773438 C0.19757694 12.42573608 -0.10643087 6.27276963 0 0 Z " fill="#0D44A0" transform="translate(897,676)"/>
<path d="M0 0 C0.8353125 0.556875 0.8353125 0.556875 1.6875 1.125 C-2.93447306 3.34354707 -6.08074163 4.50781159 -11.3125 4.125 C-4.26803691 -1.61493289 -4.26803691 -1.61493289 0 0 Z " fill="#327EFB" transform="translate(277.3125,146.875)"/>
<path d="M0 0 C0.33 0.66 0.66 1.32 1 2 C0 5 0 5 -1.84765625 5.94921875 C-2.57855469 6.19285156 -3.30945313 6.43648437 -4.0625 6.6875 C-5.16271484 7.06455078 -5.16271484 7.06455078 -6.28515625 7.44921875 C-6.85105469 7.63097656 -7.41695312 7.81273437 -8 8 C-8.66 7.34 -9.32 6.68 -10 6 C-9.44570313 5.73445312 -8.89140625 5.46890625 -8.3203125 5.1953125 C-7.59585938 4.84210937 -6.87140625 4.48890625 -6.125 4.125 C-5.40570312 3.77695312 -4.68640625 3.42890625 -3.9453125 3.0703125 C-1.84864981 2.03442457 -1.84864981 2.03442457 0 0 Z " fill="#145ACE" transform="translate(924,533)"/>
<path d="M0 0 C0.33 0 0.66 0 1 0 C2.75747614 4.50353262 3.19294408 8.17639811 3 13 C2.01 13.495 2.01 13.495 1 14 C-0.20568053 9.32798795 -0.09382426 4.78503708 0 0 Z " fill="#105AC7" transform="translate(897,676)"/>
<path d="M0 0 C0 0.99 0 1.98 0 3 C-3.4019487 5.09350689 -6.05272412 5.17942163 -10 5 C-8.28489314 1.56978628 -3.75681361 0 0 0 Z " fill="#135AD2" transform="translate(910,542)"/>
<path d="M0 0 C2.64 0.33 5.28 0.66 8 1 C8 1.66 8 2.32 8 3 C10.97 3.495 10.97 3.495 14 4 C13.01 4.66 12.02 5.32 11 6 C8.30078125 5.1015625 8.30078125 5.1015625 5.3125 3.625 C4.31863281 3.14289062 3.32476563 2.66078125 2.30078125 2.1640625 C1.16189453 1.58785156 1.16189453 1.58785156 0 1 C0 0.67 0 0.34 0 0 Z " fill="#1564E4" transform="translate(535,690)"/>
<path d="M0 0 C0.66 0.33 1.32 0.66 2 1 C-0.64 2.65 -3.28 4.3 -6 6 C-6.99 5.34 -7.98 4.68 -9 4 C-7.54618103 3.30300448 -6.08677047 2.61766134 -4.625 1.9375 C-3.40683594 1.36322266 -3.40683594 1.36322266 -2.1640625 0.77734375 C-1.44992187 0.52082031 -0.73578125 0.26429688 0 0 Z " fill="#05132B" transform="translate(417,463)"/>
<path d="M0 0 C0.99 0.66 1.98 1.32 3 2 C-3.5 5.125 -3.5 5.125 -8 4 C-5.36 2.68 -2.72 1.36 0 0 Z " fill="#2876FB" transform="translate(259,154)"/>
<path d="M0 0 C-0.33 0.66 -0.66 1.32 -1 2 C-3.64860427 2.59355614 -6.29197322 2.74209269 -9 3 C-8.67 2.01 -8.34 1.02 -8 0 C-5.04215769 -1.22393475 -3.00272755 -0.96516243 0 0 Z " fill="#2977FC" transform="translate(314,135)"/>
<path d="M0 0 C2 3 2 3 1.6875 5.0625 C1 7 1 7 0 9 C-0.66 9 -1.32 9 -2 9 C-1.34 6.03 -0.68 3.06 0 0 Z " fill="#2876FB" transform="translate(148,286)"/>
</svg>
